<svg width="84" height="126" viewBox="0 0 84 126" fill="none" xmlns="http://www.w3.org/2000/svg">
<g id="g8">
<g id="g10">
<path id="path78" d="M37.7522 56.2275C37.6593 55.9773 37.2297 55.9068 37.1725 56.2275C37.0199 57.0836 36.7256 57.8298 36.3337 58.6059C36.2814 58.7093 36.221 58.8145 36.1573 58.9215C36.0842 58.726 36.0124 58.5314 35.9485 58.3371C35.689 57.5465 35.4524 56.7437 35.0502 56.012C34.8686 55.6814 34.2714 55.811 34.3104 56.2125C34.3905 57.0409 34.606 57.8454 34.8199 58.6479C34.9126 58.9956 34.9943 59.3673 35.0958 59.7326C34.9993 59.7134 34.9018 59.6939 34.8034 59.672C34.287 59.5569 33.7326 59.3942 33.2572 59.1605C32.9748 59.0216 32.6336 59.3103 32.8103 59.6072C33.1341 60.1514 33.5975 60.4326 34.184 60.649C34.5828 60.7959 35.0586 60.9519 35.5136 60.9714C35.5769 61.063 35.6679 61.1244 35.7713 61.1552C36.1041 61.4168 36.7171 61.298 36.6741 60.7725C36.6711 60.7351 36.6641 60.698 36.6599 60.6608C37.033 60.1216 37.2495 59.3414 37.471 58.7978C37.787 58.0232 38.0558 57.0445 37.7522 56.2275Z" fill="#FBC8CB"/>
<path id="path80" d="M33.1616 87.9761C29.7072 86.8622 27.7188 83.1471 27.3155 79.7011C26.7021 74.4631 28.9468 69.7124 30.1976 64.7752C30.2116 64.7201 30.1275 64.6799 30.1026 64.7353C27.9641 69.5114 25.8994 75.0149 26.7059 80.349C27.176 83.4572 29.3561 88.42 33.0926 88.4863C33.3943 88.4918 33.4346 88.0641 33.1616 87.9761Z" fill="#FBC8CB"/>
<path id="path82" d="M39.7133 88.5096C39.635 88.2738 39.3992 88.1904 39.1811 88.2932C39.1241 88.3198 39.0619 88.3384 38.9989 88.3552C38.8729 86.9511 39.315 85.5527 39.2229 84.141C39.2003 83.7929 38.7977 83.7066 38.6006 83.9724C38.4078 84.2322 38.2486 84.5001 38.032 84.7087C38.3033 83.2603 38.6574 81.8412 38.536 80.3453C38.4648 79.4666 37.8874 79.2783 37.097 79.3993C36.652 79.4673 36.3164 79.6733 35.9406 79.9146C35.5359 80.1745 34.1273 80.9889 34.3068 79.903C34.4968 78.756 35.2454 77.7336 35.6775 76.6709C36.0653 75.7168 36.2467 74.5167 36.0199 73.508C35.7316 72.227 34.4356 71.9346 33.3114 72.118C32.4378 72.2601 31.568 72.4727 30.8543 71.8069C30.3176 71.3063 30.2321 70.4507 30.2197 69.7661C30.195 68.4046 30.6011 66.8867 31.1502 65.646C31.1807 65.5772 31.0899 65.5202 31.0477 65.5859C29.9465 67.3041 28.9868 70.1553 30.2832 72.0136C31.0911 73.1717 32.4678 72.8673 33.6604 72.7199C35.8817 72.4453 35.5842 74.9843 35.0759 76.3677C34.7522 77.2491 32.2748 80.9205 34.5128 81.1618C35.6672 81.2862 36.4217 80.1515 37.5264 80.0526C38.4748 79.968 37.3177 84.6684 37.2178 85.2819C37.1752 85.5434 37.3715 85.789 37.6531 85.717C38.0416 85.6176 38.3316 85.4256 38.5725 85.1742C38.5045 86.3816 38.1893 87.5743 38.3445 88.796C38.3722 89.0137 38.5512 89.213 38.7933 89.1378C38.9027 89.1036 39.0118 89.0802 39.1201 89.0557C39.596 90.9361 38.7426 93.0113 38.5083 94.876C38.4678 95.1971 39.003 95.2638 39.0695 94.952C39.5033 92.9159 40.4026 90.5837 39.7133 88.5096Z" fill="#FBC8CB"/>
<path id="path84" d="M55.4521 91.0103C54.7107 92.4068 53.9646 93.8109 53.1949 95.2044C50.5816 98.6348 47.9004 101.936 46.2306 105.966C45.8524 106.879 46.2838 107.747 46.9988 108.28C46.6312 108.986 46.2947 109.707 45.999 110.441C45.5898 110.219 45.1131 110.149 44.6396 110.222C44.5936 110.153 44.5459 110.085 44.5013 110.015C44.3004 109.698 44.1363 109.359 43.9822 109.018C43.9689 108.982 43.9489 108.929 43.9193 108.852C43.8256 108.611 43.7413 108.366 43.6584 108.121C43.4971 107.644 43.3569 107.161 43.2229 106.676C42.99 105.835 42.7922 104.984 42.6089 104.131C43.4388 104.558 44.5417 104.469 45.1961 103.748C49.0352 99.5208 52.5666 95.0336 55.8097 90.3395C55.6905 90.5633 55.571 90.7865 55.4521 91.0103ZM42.4227 30.6268C42.3945 30.5795 42.3681 30.5311 42.3389 30.4845C42.4124 30.4507 42.4875 30.4197 42.5619 30.3876C42.5101 30.4564 42.4637 30.5368 42.4227 30.6268ZM76.8421 111.699C76.7351 108.309 76.1304 104.945 76.0707 101.556C75.8904 91.2676 74.1538 80.8925 70.2934 71.3265C68.7253 67.4408 66.8491 63.6982 64.6348 60.1407C62.3873 56.5295 59.5078 53.1882 57.0466 49.9151C54.7972 46.9235 53.3 43.9819 53.1713 40.1996C53.1094 38.3843 52.9295 36.582 52.9825 34.7629C53.0079 33.9005 53.0961 33.0546 53.2859 32.2131C53.4848 31.3298 53.6615 30.357 53.9682 29.5117C54.2486 28.7388 53.4753 28.1129 52.7824 28.1948C52.7594 28.1785 52.736 28.1623 52.711 28.1473C50.8659 27.0451 48.1669 27.2294 46.1271 27.4705C44.9141 27.6142 43.7285 27.8713 42.5749 28.2741C41.9879 28.4791 41.3492 28.7213 40.7991 29.0709C40.3519 29.0825 39.9382 29.4483 39.882 29.9044C39.8738 29.9155 39.8649 29.9259 39.8571 29.9373C39.4925 30.4589 39.8596 30.9901 40.3416 31.1584C41.1546 32.9957 41.3934 35.1589 41.5527 37.1119C41.6539 38.3558 41.6955 39.6043 41.7263 40.8515C41.7533 41.9474 41.8259 43.0403 41.5952 44.1193C41.5918 44.1349 41.5872 44.1497 41.5836 44.1651C41.565 44.1959 41.5445 44.2261 41.5259 44.2569C41.3117 44.6131 41.211 44.9695 41.1979 45.3096C40.5289 46.7749 39.3141 47.8859 38.0753 48.9582C36.2646 50.5257 34.1845 52.0463 32.9875 54.1756C32.4273 55.1722 32.9284 56.4731 34.0473 56.7807C34.7278 56.9678 35.5338 56.6713 35.9727 56.1132C36.3068 56.4533 36.7289 56.6876 37.1857 56.7376C37.5991 57.5797 38.5683 58.0687 39.6422 57.8745C39.851 57.8369 40.0545 57.7862 40.2557 57.7299C40.3021 58.2509 40.5234 58.7567 40.903 59.1363C41.5523 59.7856 42.8465 60.0979 43.6377 59.4893C43.8408 59.3332 44.0401 59.1736 44.2379 59.0123C44.3276 60.2043 45.4163 61.1604 46.6448 61.0988C45.3285 62.5333 43.9989 63.953 42.8511 65.5338C41.8437 66.9214 43.1656 68.7689 44.6428 68.9249C44.6312 68.9437 44.6187 68.9618 44.6071 68.9808C44.1418 69.7303 44.2005 70.4807 44.5571 71.0704C43.8777 72.0951 43.2089 73.1262 42.5503 74.1623C41.8946 75.1934 42.5036 76.17 43.3786 76.5247C42.8344 77.3638 42.2976 78.2078 41.766 79.0559C41.0262 80.2368 41.6619 81.486 42.6619 82.034C41.7748 83.3283 40.9619 84.6733 40.27 86.1002C39.8455 86.9755 39.885 87.9749 40.6047 88.6948C40.8538 88.9437 41.186 89.1253 41.5451 89.2272C40.9251 90.5101 42.0246 91.8784 43.2532 92.0855C42.983 92.7158 42.7483 93.3629 42.5608 94.0315C42.1434 95.5204 43.2514 96.5526 44.4828 96.6151C43.5321 97.9041 42.6617 99.2487 41.9384 100.675C41.7261 99.4817 41.5249 98.2862 41.3167 97.0922C41.0695 95.6754 40.9011 94.1204 40.2301 92.8246C39.4001 91.222 37.0749 91.7388 36.5864 93.3008C35.5614 96.5789 35.5158 100.129 35.1405 103.52C34.9701 105.06 34.7203 106.747 34.2498 108.294C34.0418 106.478 34.0748 104.636 34.1514 102.813C34.3032 99.1986 34.8603 95.5517 34.6674 91.9307C34.554 89.8031 31.7032 89.4411 31.0166 91.4365C29.8105 94.9416 29.3579 98.6865 28.4827 102.28C28.0457 104.075 27.4716 106.072 26.7642 107.611C26.5104 108.164 26.2284 108.7 25.91 109.216C25.7958 108.393 25.7916 107.526 25.8075 106.671C25.8484 104.489 26.1741 102.322 26.4454 100.16C26.7214 97.964 27.1096 95.7972 27.4503 93.6099C27.8295 91.1754 28.1451 88.5622 27.407 86.1619C26.9949 84.8213 25.035 84.4206 24.3208 85.7585C22.9484 88.33 22.1181 91.1029 21.4451 93.931C21.6028 92.0582 21.5894 90.1749 21.2555 88.2715C21.0019 86.8252 18.9765 86.7859 18.3048 87.8858C15.2855 92.8296 14.1585 98.4576 12.7504 103.996C12.6622 97.8703 14.1094 91.6301 16.1451 85.9905C16.6906 84.48 14.2968 83.842 13.7524 85.3309C12.157 89.6938 10.2137 93.9836 8.68171 98.3867C8.86468 94.2151 9.31858 90.0702 10.5834 86.0943C10.6526 85.8773 10.3182 85.734 10.2144 85.9389C6.65289 92.9761 6.81381 101.155 6.22196 108.841C6.12506 110.1 8.2504 110.397 8.43527 109.14C8.76397 106.906 9.27926 104.734 9.9112 102.599C9.75103 105.723 9.93646 108.85 10.584 111.918C10.7271 112.596 11.4325 113.072 12.0989 113.072C12.8672 113.072 13.3367 112.575 13.6135 111.918C15.4651 107.525 16.2754 102.779 17.5463 98.2015C17.4335 98.75 17.3174 99.2959 17.2026 99.8379C16.393 103.663 15.5384 107.568 15.8675 111.501C16.013 113.239 18.1133 113.861 19.1123 112.379C20.5924 110.185 21.5476 107.801 22.2656 105.331C22.2146 105.95 22.1774 106.57 22.1624 107.191C22.1109 109.336 22.3311 111.774 23.599 113.582C24.1631 114.386 25.2417 114.832 26.1497 114.251C28.0925 113.006 29.3788 111.115 30.3052 109.027C30.5211 110.937 31.009 112.793 31.985 114.438C32.6588 115.573 34.2724 115.798 35.2114 114.853C37.3582 112.692 38.2641 109.823 38.7783 106.899C39.5075 110.256 41.0892 115.347 44.8693 114.489C44.8562 114.576 44.8444 114.663 44.833 114.749C44.692 114.804 44.544 114.851 44.2332 114.969C43.6628 115.186 43.0974 115.42 42.5454 115.681C41.4235 116.211 40.4081 117.156 39.8932 118.291C39.3154 119.565 39.6774 121.445 41.302 121.754C41.5667 121.804 41.8302 121.84 42.0928 121.867C42.298 123.589 43.5733 125.03 45.2856 125.576C46.972 126.113 48.9545 125.639 50.5807 125.111C54.0421 123.987 57.2039 122.24 59.8183 119.702C60.382 119.155 60.9387 118.574 61.5015 118.018C61.7162 118.43 61.967 118.821 62.2794 119.196C63.4614 120.611 65.2348 120.986 66.9705 120.688C68.0453 120.503 69.08 120.081 70.0857 119.634C70.1125 121.349 71.924 122.918 73.7734 121.817C77.0483 119.867 76.9472 115.028 76.8421 111.699Z" fill="white"/>
<path id="path86" d="M40.6876 62.6999C40.2867 62.5041 39.8782 62.3255 39.4728 62.1396C39.3025 62.0615 39.1352 61.9785 38.9716 61.8875C38.8503 61.8201 38.7761 61.7834 38.731 61.7674C38.5754 61.6785 38.3947 61.6646 38.2344 61.7152C38.1855 61.6652 38.1249 61.6259 38.0522 61.6063C37.8266 61.5453 37.6258 61.5565 37.4003 61.6118C37.1054 61.684 36.8557 62.0568 36.9764 62.3585C37.0412 62.5202 37.1289 62.676 37.231 62.8265C37.1046 63.2888 37.1392 63.832 37.1248 64.2752C37.1035 64.9285 36.9994 65.7646 37.2154 66.3956C37.3224 66.7076 37.7727 66.8142 37.9478 66.4914C38.2349 65.9626 38.2184 65.2076 38.2737 64.6229C38.2889 64.4631 38.3178 64.2918 38.3503 64.1151C38.792 64.6254 39.3329 65.3708 39.9305 65.6683C40.2208 65.8127 40.5313 65.5788 40.4631 65.2589C40.3293 64.6317 39.6776 63.956 39.2963 63.4643C39.2832 63.4474 39.2704 63.4297 39.2575 63.4126C39.5826 63.5352 39.9104 63.6498 40.2385 63.7653C40.7739 63.9539 41.5396 64.1939 41.8067 64.7402C41.8649 64.8591 42.0361 64.8165 42.0712 64.7054C42.3762 63.744 41.4587 63.0771 40.6876 62.6999Z" fill="#FBC8CB"/>
<path id="path88" d="M38.5765 61.2425C38.6835 61.2235 38.7929 61.1997 38.9056 61.1779C39.6704 61.0295 40.4248 60.8419 41.1805 60.6533C40.483 61.1834 39.5199 61.2938 38.5765 61.2425ZM45.9842 58.1536C45.0755 58.6165 44.252 59.0989 43.265 59.4071C42.8772 59.5283 42.4782 59.6314 42.0752 59.719C40.9994 59.4152 39.9343 59.556 38.9734 60.0042C39.845 58.9976 40.2975 57.4797 40.1917 56.3049C40.1676 56.0365 39.9117 55.8689 39.6612 56.0006C38.2752 56.7288 36.9566 58.6269 36.9822 60.3215C36.9583 60.3496 36.9351 60.3785 36.9108 60.4066C36.7033 60.6455 36.8261 60.9578 37.0801 61.0321C37.0822 61.0397 37.0843 61.0475 37.0862 61.0551C37.0275 61.0445 36.9695 61.034 36.9127 61.0234C36.379 60.9238 36.1464 61.7074 36.6856 61.8465C38.5665 62.3323 41.3781 62.2561 42.4124 60.3179C43.7877 59.9031 45.3301 59.2682 46.0656 58.235C46.1026 58.1827 46.0329 58.1289 45.9842 58.1536Z" fill="#FBC8CB"/>
<path id="path90" d="M40.6511 6.54025C42.4383 4.45557 44.4967 1.59057 47.4919 1.47296C49.9469 1.37644 49.7582 4.65508 50.1443 6.30732C50.1831 6.47319 50.4175 6.58814 50.564 6.47832C51.095 6.07856 51.6172 5.66702 52.141 5.25795C52.4256 5.95639 52.3304 6.70822 52.6479 7.3926C52.9236 7.98749 53.4811 8.16286 54.0792 8.2058C54.3579 10.2582 52.8068 12.3987 52.1159 14.2383C52.0557 14.3985 52.1501 14.6394 52.308 14.7106C52.9677 15.0076 53.2493 14.7526 53.8037 14.3514C54.0792 14.152 53.9183 13.6007 53.5519 13.7546C53.4664 13.7903 53.2816 13.8783 53.1035 13.9396C53.8198 11.9879 54.9904 9.93442 54.6336 7.82979C54.6104 7.69299 54.4647 7.6111 54.3387 7.60521C53.3885 7.55961 53.1391 7.23395 53.0129 6.36147C52.9263 5.76392 52.7752 5.22033 52.4788 4.69194C52.4106 4.57053 52.2195 4.50345 52.0994 4.59237C51.5957 4.96382 51.1026 5.34839 50.6071 5.72953C50.2742 3.90572 50.2174 1.13818 47.9063 0.957111C44.6225 0.699471 42.0248 3.92491 40.5871 6.49086C40.5651 6.53019 40.6202 6.57673 40.6511 6.54025Z" fill="#9A7660"/>
<path id="path92" d="M35.5432 51.477C35.3628 51.283 35.0433 51.39 34.9716 51.6278C34.7442 52.3827 34.7556 53.4024 35.3015 54.0167C35.3209 54.1389 35.424 54.2181 35.5401 54.2345C35.5956 54.2742 35.6541 54.3116 35.717 54.3448C35.9969 54.4927 36.3077 54.1252 36.0634 53.8959C36.0459 53.8814 36.0307 53.8655 36.0142 53.8505C36.413 53.1104 36.0774 52.0512 35.5432 51.477Z" fill="#9A7660"/>
<path id="path94" d="M36.883 51.4059C37.0232 51.1386 36.9947 50.8859 36.9894 50.5882C36.982 50.173 36.9824 49.7565 36.9596 49.3418C36.9436 49.0547 36.5427 48.9914 36.4569 49.2736C36.2154 50.0659 36.2275 51.0235 36.6298 51.7643C36.6685 51.8355 36.7979 51.8072 36.789 51.7211C36.781 51.6459 36.773 51.572 36.765 51.4981C36.8139 51.484 36.8578 51.454 36.883 51.4059Z" fill="#9A7660"/>
<path id="path96" d="M41.1828 50.1746C40.9941 50.1843 40.9987 50.4471 41.1828 50.4642C41.3946 50.4838 41.597 50.5374 41.7917 50.6227C41.9834 50.7065 42.1425 50.8444 42.3302 50.9318C42.5445 51.0315 42.8046 50.7587 42.6 50.5822C42.2325 50.2651 41.6572 50.1501 41.1828 50.1746Z" fill="#9A7660"/>
<path id="path98" d="M39.2838 60.8658C39.3129 61.3638 38.7585 61.3218 38.4541 61.3327C37.5035 61.3669 36.5667 61.1672 35.6227 61.0995C35.9227 60.5449 36.3603 60.023 36.7741 59.5011C36.7956 59.5087 36.8161 59.5176 36.8418 59.5197C37.4243 59.5685 37.9947 59.7226 38.5216 59.9751C38.8875 60.1503 39.2582 60.4264 39.2838 60.8658ZM41.7434 61.8325C42.4905 61.9722 43.5212 63.2 42.3772 63.5549C41.758 63.747 40.9123 63.4086 40.6511 62.8181C40.5715 62.6381 40.2709 62.7286 40.2834 62.9176C40.3535 63.9697 39.5548 64.2207 39.0064 63.979C39.0353 63.4249 38.9189 62.8403 38.7594 62.4318C38.7357 62.371 38.6941 62.3258 38.6458 62.2954C39.6695 62.0187 40.641 61.6266 41.7434 61.8325ZM38.0139 52.4275C38.0181 52.4638 38.0319 52.4988 38.0521 52.5303C38.0266 52.517 37.9989 52.5089 37.9713 52.5072C37.9858 52.4806 37.9991 52.454 38.0139 52.4275ZM37.6894 53.4079C37.6459 53.4536 37.5727 53.4781 37.4999 53.4973C37.5678 53.3333 37.6398 53.1693 37.7171 53.0063C37.7429 52.9939 37.7692 52.982 37.7958 52.9704C37.8041 53.133 37.7893 53.3029 37.6894 53.4079ZM32.9907 59.3517C33.6667 58.8647 34.3288 59.0426 34.9425 59.5905C34.9366 59.5947 34.9308 59.5963 34.9251 59.6014C34.2401 60.2195 33.4216 60.0684 32.9907 59.3517ZM42.2207 52.8811C42.2159 52.906 42.2135 52.9301 42.2098 52.9548C42.1044 52.9301 41.9733 53.0354 41.9993 53.1646C42.0928 53.6304 42.1418 54.0464 42.1148 54.5198C42.0911 54.9386 42.7462 54.9382 42.7658 54.5198C42.766 54.5134 42.7673 54.5067 42.7677 54.5005C42.8783 54.5573 43.0021 54.5702 43.1298 54.5027C42.8897 54.7991 42.6449 55.0889 42.3981 55.3699C40.9931 56.9708 39.2447 58.5195 37.1351 59.0521C37.1304 59.0515 37.1254 59.0511 37.1207 59.0508C37.8647 58.0413 38.3479 56.9978 37.4165 55.6891C37.3331 55.5721 37.1912 55.5774 37.107 55.6891C36.9161 55.9422 36.7546 56.2104 36.6045 56.4848C36.7472 55.7607 36.9446 55.0473 37.18 54.349C37.2377 54.1784 37.301 54.004 37.3681 53.8284C37.594 53.8951 37.8119 53.8761 37.9886 53.707C38.2611 53.4469 38.1969 52.9778 38.1473 52.6491C38.1454 52.6373 38.1418 52.6261 38.137 52.6153C38.2202 52.6694 38.3272 52.6772 38.4034 52.5822C38.6392 52.2889 39.012 51.8861 38.9895 51.4755C38.984 51.3746 38.9236 51.2988 38.8514 51.2338C39.3141 50.7147 39.866 50.2967 40.5261 50.0657C40.7356 49.9925 40.6511 49.6986 40.4354 49.7366C39.9127 49.8287 39.4514 50.0491 39.0408 50.3497C39.0579 50.3235 39.0714 50.2935 39.0785 50.2574C39.193 49.6783 39.1583 49.0866 39.1203 48.5014C39.1111 48.3617 38.9219 48.2436 38.8145 48.3749C38.6827 48.5364 38.5508 48.6758 38.4657 48.8685C38.4011 49.0142 38.3715 49.1738 38.3169 49.3233C38.2905 49.3957 38.4024 49.4394 38.4391 49.375C38.5371 49.2027 38.6086 49.0093 38.7332 48.8613C38.715 49.0598 38.6895 49.2565 38.6584 49.4522C38.6145 49.4888 38.5812 49.5447 38.5712 49.6211C38.5465 49.8078 38.52 49.9925 38.5138 50.181C38.5069 50.3965 38.7351 50.5008 38.905 50.4497C38.0481 51.1331 37.4313 52.1771 36.9852 53.1655C36.8505 53.315 36.734 53.4777 36.6474 53.6481C36.6161 53.7099 36.6957 53.7794 36.7464 53.7245C36.7487 53.7222 36.751 53.7201 36.753 53.7177C36.3584 54.6967 36.0607 55.705 35.8572 56.7417C35.8517 56.77 35.8454 56.8002 35.8395 56.8297C35.6522 56.4284 35.4029 56.06 35.059 55.7429C34.9642 55.6555 34.7976 55.637 34.7056 55.7429C33.9369 56.6275 34.0832 57.6814 34.4881 58.6626C33.8158 58.3973 33.1145 58.5056 32.4488 59.0842C32.3509 59.1691 32.3549 59.3107 32.4058 59.4171C32.5594 59.7384 32.772 59.9856 33.0156 60.1579C32.7528 60.1083 32.4855 60.0817 32.2231 60.0802C31.9926 60.0788 31.9941 60.4288 32.2231 60.4364C33.0268 60.4634 33.7096 60.7171 34.318 61.2426C34.5154 61.4128 34.7921 61.1449 34.6066 60.9538C34.3951 60.7359 34.1466 60.5679 33.8783 60.4372C34.3146 60.4338 34.7605 60.2291 35.1194 59.7954C35.1483 59.7604 35.1576 59.7226 35.154 59.6878C35.3442 59.6888 35.5167 59.4883 35.3993 59.2799C34.9007 58.3947 34.3184 57.2465 34.9099 56.3018C35.2956 56.7297 35.5082 57.2393 35.6567 57.7894C35.5768 58.3225 35.5534 58.8737 35.7392 59.2923C35.8559 59.5546 36.2184 59.4406 36.2955 59.2195C36.4401 58.8041 36.4354 58.2936 36.4468 57.8047C36.7048 57.2363 36.9282 56.6531 37.2543 56.1198C38.3114 58.1249 35.6564 59.5315 34.903 61.2266C34.8103 61.4353 34.9184 61.6672 35.1622 61.6781C36.0022 61.7157 36.8382 61.8605 37.6791 61.9063C37.7179 61.9082 37.7595 61.9108 37.8024 61.9139C37.6892 62.1385 37.8687 62.4776 38.1923 62.4069C38.2293 62.3988 38.2662 62.3898 38.3033 62.3811C37.7667 63.2304 38.0023 63.8809 38.494 64.2387C38.4269 64.5374 38.2765 64.8047 37.9953 64.9926C36.9797 65.6715 37.2495 63.2252 37.3118 62.9313C37.3257 62.8656 37.2332 62.8405 37.2115 62.904C36.998 63.5306 36.466 65.8256 37.9191 65.5282C38.5079 65.4076 38.8125 64.9822 38.9386 64.4627C39.6783 64.7012 40.5986 64.4407 40.7058 63.4928C41.1268 63.8769 41.6737 64.0643 42.2898 64.0269C42.9163 63.9887 43.4688 63.4675 43.3257 62.8082C42.9866 61.2426 41.2196 61.1387 39.6787 61.3709C40.2105 60.3458 39.1275 59.6048 38.0671 59.2579C38.5759 59.1047 39.0663 58.8754 39.5358 58.5944C39.5483 58.7141 39.6475 58.8264 39.7809 58.8258C40.167 58.8239 40.5489 58.6934 40.8675 58.4813C41.0596 58.3536 40.9429 58.0181 40.7045 58.0949C40.6007 58.1283 40.4945 58.1638 40.3874 58.1984C40.3699 58.164 40.3454 58.1327 40.3119 58.1087C40.3036 58.1029 40.2954 58.0987 40.287 58.093C41.158 57.4517 41.9438 56.6754 42.622 55.9593C44.0046 54.4986 45.3137 52.7675 46.1347 50.8885C46.1117 50.9877 46.1067 51.0881 46.1544 51.1821C46.2401 51.3512 46.4575 51.3926 46.6254 51.3596C46.9872 51.2879 47.276 51.0404 47.5488 50.8107C47.8177 50.5847 47.4753 50.1941 47.1892 50.3446C47.0028 50.4424 46.8268 50.5486 46.6543 50.6691C46.6154 50.6965 46.5696 50.7257 46.5297 50.7483C46.5297 50.7457 46.5301 50.7436 46.5301 50.7409C46.5322 50.5769 46.3499 50.5353 46.2487 50.6207C46.353 50.3653 46.4493 50.108 46.5341 49.8479C46.5831 49.6974 46.4983 49.5656 46.384 49.4791C46.0657 49.2392 45.8176 49.2392 45.4387 49.3275C45.0925 49.4083 45.1866 49.9108 45.5196 49.9253C45.619 49.9209 45.7161 49.9311 45.8109 49.9536C45.6049 50.5519 45.3422 51.1337 45.0376 51.6978C44.9219 51.1893 44.5902 50.6607 44.3675 50.3161C44.2187 50.0854 43.825 50.1633 43.833 50.4607C43.8486 51.04 43.7314 51.6345 43.9079 52.1988C43.986 52.4488 44.3403 52.3721 44.3388 52.1401C44.3392 52.1403 44.3396 52.1403 44.3397 52.1403C44.3396 52.1378 44.3396 52.1353 44.3392 52.1329C44.3392 52.1315 44.339 52.1306 44.339 52.1293C44.3306 52.0534 44.3253 51.9782 44.3221 51.9032C44.3532 52.0717 44.3764 52.2434 44.3903 52.4203C44.3973 52.5096 44.4372 52.578 44.4912 52.6269C44.1226 53.2066 43.7169 53.7642 43.2934 54.2985C43.3255 54.1898 43.3126 54.0652 43.2583 53.9652C43.0761 53.631 42.9026 53.3812 42.9533 52.9801C42.9727 52.5634 42.299 52.4656 42.2207 52.8811Z" fill="#9A7660"/>
<path id="path100" d="M41.0419 56.4679C41.0854 56.4712 41.1312 56.4653 41.1783 56.4446C41.2918 56.395 41.3224 56.2652 41.3305 56.1559C41.3387 56.0459 41.3087 55.9886 41.2937 55.8516C41.2703 55.6407 41.2471 55.4298 41.2237 55.2185C41.1981 54.9846 40.8859 54.9846 40.8601 55.2185C40.8384 55.4167 40.8164 55.615 40.7945 55.8134C40.779 55.9551 40.7598 56.0334 40.7544 56.1352C40.7486 56.2494 40.7905 56.3942 40.9057 56.4446C40.9528 56.4653 40.9986 56.4712 41.0419 56.4679Z" fill="#9A7660"/>
<path id="path102" d="M43.5378 56.6792C43.6643 56.6001 43.7301 56.4215 43.5933 56.3058C43.5047 56.2306 43.408 56.1905 43.2999 56.1496C43.2475 56.1293 43.0068 56.079 42.9876 56.0231C42.9406 55.888 42.7318 55.9053 42.7324 56.0575C42.7326 56.1453 42.7769 56.2241 42.8394 56.2969C42.7531 56.3174 42.6678 56.3505 42.5895 56.3902C42.3636 56.5047 42.4609 56.907 42.7221 56.8804C42.8057 56.8718 42.8861 56.8509 42.9659 56.8279C42.9847 56.8553 43.0069 56.8923 43.028 56.9273C43.0683 56.9938 43.1164 57.0576 43.1715 57.1127C41.9352 57.9419 40.7477 58.8433 39.6194 59.8128C39.5907 59.8374 39.6295 59.8883 39.6597 59.8653C40.9004 58.9185 42.1947 58.0669 43.5213 57.271C43.5348 57.2708 43.5481 57.2723 43.5619 57.271C43.5716 57.2701 43.5798 57.2666 43.5891 57.2649C43.5612 57.3702 43.5908 57.4874 43.7088 57.5444C44.332 57.8469 45.1015 57.8541 45.7452 57.6212C46.058 57.5081 46.0373 56.9619 45.6614 57.0016C45.0675 57.0643 44.4808 57.0539 43.8863 57.0535C45.8535 55.893 47.888 54.8461 49.9258 53.7902C50.055 53.7233 49.9628 53.4963 49.8259 53.5529C49.3799 53.7368 48.9376 53.9301 48.4989 54.1313C48.6461 53.5316 48.7573 52.9253 48.9266 52.3299C48.9895 52.1089 48.695 52.0082 48.5739 52.1811C48.1597 52.7732 48.0159 53.5704 48.1776 54.2776C48.1778 54.2789 48.1787 54.2797 48.1791 54.2812C46.6156 55.0153 45.1019 55.8567 43.6524 56.7972C43.6083 56.755 43.565 56.7132 43.5378 56.6792Z" fill="#9A7660"/>
<path id="path104" d="M44.4894 54.6065C44.3012 54.6854 44.2996 54.9134 44.4894 54.9916C44.7374 55.0942 45.0477 55.1001 45.3123 55.13C45.6072 55.163 45.8728 55.1609 46.1502 55.046C46.455 54.9198 46.3436 54.4999 46.014 54.5522C45.6777 54.6054 45.2958 54.5301 44.9392 54.5354C44.9726 54.4556 45.0083 54.3749 45.0627 54.2981C45.1155 54.2233 45.0442 54.1249 44.9624 54.1233C44.8402 54.1213 44.3981 53.8718 44.3525 54.0855C44.3382 54.1528 44.4273 54.1735 44.4528 54.1133C44.4503 54.1192 44.6337 54.2138 44.7758 54.2822C44.6867 54.4072 44.5962 54.5615 44.4894 54.6065Z" fill="#9A7660"/>
<path id="path106" d="M45.5421 53.2401C45.6723 53.3701 45.9356 53.3963 46.0614 53.2401C46.0802 53.2232 46.0952 53.2012 46.1129 53.1826C46.1746 53.2035 46.244 53.209 46.3183 53.1913C46.598 53.1237 46.7652 52.8763 46.7669 52.5957C46.7678 52.4528 46.7137 52.3146 46.6354 52.1934C46.6702 52.001 46.5193 51.8151 46.2845 51.8605C46.244 51.8683 46.2064 51.8841 46.1709 51.9046C46.0553 51.9175 45.9467 51.9789 45.8929 52.0885C45.8488 52.1778 45.8028 52.266 45.7559 52.3536C45.7131 52.4338 45.6683 52.5128 45.6216 52.5907C45.6029 52.6217 45.5836 52.6517 45.5638 52.6815C45.5518 52.7 45.4709 52.8092 45.5421 52.7207C45.4167 52.8765 45.3892 53.0874 45.5421 53.2401Z" fill="#9A7660"/>
<path id="path108" d="M43.513 58.4216C43.3101 58.3345 43.1209 58.2616 42.8965 58.2726C42.8098 58.2766 42.6698 58.2831 42.5965 58.3332C42.4908 58.4054 42.4171 58.5023 42.2927 58.5462C42.2526 58.5605 42.2685 58.6226 42.3105 58.6108C42.461 58.5681 42.6632 58.6577 42.8266 58.6674C43.0063 58.6781 43.1974 58.7163 43.373 58.7539C43.5638 58.7947 43.7116 58.5065 43.513 58.4216Z" fill="#9A7660"/>
<path id="path110" d="M48.3759 55.757C47.6644 55.9694 46.8643 55.9907 46.1356 55.8537C45.908 55.8108 45.7543 56.1152 45.9724 56.2402C46.7932 56.7101 47.7611 56.7032 48.6159 56.3268C48.9435 56.1826 48.7084 55.6578 48.3759 55.757Z" fill="#9A7660"/>
<path id="path112" d="M49.1585 54.7715C49.6962 54.7911 50.2122 54.7928 50.7374 54.6636C50.9238 54.6174 50.8448 54.3347 50.6586 54.377C50.1628 54.4903 49.6654 54.53 49.1585 54.5488C49.0149 54.5539 49.0149 54.7664 49.1585 54.7715Z" fill="#9A7660"/>
<path id="path114" d="M50.4464 53.2863C50.8904 52.7809 51.2438 52.2694 51.5015 51.646C51.6141 51.3737 51.1838 51.2162 51.0401 51.4516C50.7238 51.9705 50.3968 52.4841 50.0734 52.9986C49.9307 53.2253 50.2672 53.4905 50.4464 53.2863Z" fill="#9A7660"/>
<path id="path116" d="M40.882 64.3931C40.6675 64.2304 40.3835 64.5992 40.5942 64.766C41.1552 65.2097 41.1098 66.1147 40.9861 66.7457C40.8856 67.2592 40.3975 68.2869 39.6996 67.9586C39.2469 67.7458 39.2579 66.8437 39.2514 66.4398C39.2425 65.8846 39.3052 65.2986 39.4948 64.7744C39.5476 64.6289 39.3067 64.5265 39.2438 64.6686C38.883 65.485 38.2756 68.4583 39.8121 68.537C41.6969 68.6335 42.151 65.3541 40.882 64.3931Z" fill="#9A7660"/>
<path id="path118" d="M37.9752 30.799C38.4757 29.5862 38.9687 28.3713 39.3882 27.1318C39.4597 26.9209 39.1359 26.839 39.059 27.0414C38.1817 29.348 37.0476 31.6538 36.482 34.0622C36.4565 34.1707 36.6085 34.2093 36.6467 34.1075C36.9718 33.2382 37.3235 32.3779 37.6784 31.5183C37.8718 33.2627 39.1279 34.6611 40.042 36.1758C41.258 38.1905 41.3488 40.3957 40.0548 42.3753C38.99 44.004 37.3334 45.2262 35.8797 46.484C34.8803 47.3484 33.7469 48.312 33.0515 49.4914C33.0629 49.2833 33.0742 49.0753 33.0865 48.8685C33.2108 46.7761 33.4678 44.7406 33.8467 42.6799C34.2041 40.7373 34.9719 38.9312 35.4733 37.0319C35.4816 37 35.4347 36.9784 35.4191 37.0091C33.7416 40.2978 32.891 44.194 32.6598 47.8557C32.529 49.9255 32.4272 51.9969 32.261 54.0643C32.0759 56.368 31.7157 58.637 31.4077 60.9252C31.3871 61.077 31.5956 61.1456 31.6438 60.99C32.6394 57.7803 32.8125 54.2872 32.9797 50.9C32.9879 50.89 32.9961 50.8797 33.0033 50.8677C35.0332 47.4804 38.8549 45.7693 40.9099 42.4317C41.9337 40.7692 41.9867 38.8265 41.2994 37.0274C40.4416 34.782 38.2365 33.2646 37.9752 30.799Z" fill="#9A7660"/>
<path id="path120" d="M51.9594 27.3033C51.8781 27.3033 51.8781 27.4297 51.9594 27.4297C52.0407 27.4297 52.0407 27.3033 51.9594 27.3033Z" fill="#9A7660"/>
<path id="path122" d="M1.63083 109.57C2.08626 104.371 2.65911 99.2982 4.10767 94.2651C5.45306 89.5901 7.41653 85.1179 9.73263 80.8471C14.389 72.2606 20.476 64.5892 26.3816 56.8471C27.1267 55.8703 27.8801 54.9079 28.5517 53.885C28.7188 56.8123 28.9937 59.7459 29.8025 62.5461C29.8724 62.788 30.1992 62.6797 30.1675 62.4454C29.8662 60.219 29.4706 58.0292 29.2977 55.7836C29.2255 54.8462 29.1692 53.9083 29.117 52.9699C29.1265 52.9534 29.1368 52.9374 29.1463 52.9207C29.192 52.8411 29.1611 52.7583 29.1022 52.7121C29.0353 51.4938 28.9751 50.2752 28.9029 49.0567C28.774 46.8819 28.5335 44.5835 29.091 42.4481C29.3594 41.4191 29.8964 40.3764 30.0693 39.3087C30.6332 37.8511 31.2157 36.3991 31.6896 34.9013C32.758 31.5239 33.5115 28.0575 34.5622 24.6763C35.2829 22.3569 36.4552 19.4733 39.4351 20.3287C40.084 20.5151 40.6971 20.7752 41.2928 20.2975C42.311 19.4815 42.938 18.171 42.895 16.868C42.8937 16.8319 42.8354 16.8205 42.8295 16.8593C42.6575 17.9799 41.6439 20.5402 40.137 20.1594C39.1306 19.905 38.35 19.6299 37.3003 19.9031C35.1597 20.4609 34.6127 22.9376 34.0657 24.7599C33.0684 28.0826 32.3208 31.4758 31.3031 34.7947C30.9583 35.9199 30.5198 37.0183 30.079 38.1161C30.0643 38.0281 30.0472 37.9402 30.0242 37.8518C30.0109 37.7998 29.9372 37.8226 29.9456 37.8733C29.9722 38.0333 29.9821 38.1919 29.9849 38.3502C29.2084 40.2844 28.4442 42.2209 28.1904 44.3006C28.1809 44.3783 28.2525 44.4173 28.3182 44.4106C28.1296 46.0619 28.2272 47.7835 28.3218 49.4091C28.3935 50.6379 28.4455 51.881 28.5101 53.1271C26.9367 54.816 25.598 56.7338 24.1871 58.5559C22.7144 60.4574 21.2502 62.3654 19.8051 64.2882C16.8892 68.1673 14.0918 72.1263 11.5127 76.2385C6.39831 84.3925 2.69711 93.3559 1.44805 102.94C1.16267 105.129 1.0291 107.364 1.14101 109.57C1.15716 109.889 1.60347 109.882 1.63083 109.57Z" fill="#9A7660"/>
<path id="path124" d="M83.3992 116.339C81.1439 115.931 78.9777 116.076 76.9069 116.619C76.9267 114.582 76.7925 112.533 76.6637 110.509C76.4832 107.68 76.2026 104.858 75.8488 102.046C75.1627 96.5967 74.0902 91.2 72.5455 85.9278C70.9696 80.5488 68.7673 75.2563 65.8962 70.436C63.4053 66.2539 60.0807 62.6451 57.1361 58.7905C54.8023 55.7359 52.9118 52.5338 51.4156 49.0089C51.0147 45.182 51.5085 41.3318 52.0169 37.5373C52.2613 35.7127 52.6844 33.9165 52.9095 32.0904C53.1009 30.5402 53.2527 28.735 52.4651 27.3148C52.4528 27.2925 52.4347 27.2794 52.4155 27.2724C52.532 27.1462 52.5244 26.8981 52.3076 26.835C52.2816 26.8272 52.2554 26.8211 52.229 26.8137C52.7327 25.9386 53.5721 24.5236 52.7102 23.6077C52.0126 22.8655 50.5112 22.9618 49.5944 22.7677C48.922 22.6252 48.2865 22.3639 47.7999 21.8671C47.1495 21.2032 47.3262 19.9019 47.4377 19.0794C47.6205 17.7311 48.0507 16.4369 48.4392 15.1344C48.4501 15.1129 48.4615 15.0917 48.4721 15.0704C48.8492 14.311 49.1107 13.4932 49.3258 12.6754C49.3465 12.597 49.3736 12.5063 49.4031 12.4091C49.9389 12.7919 50.7713 12.6065 51.3899 12.3338C51.6656 12.2124 51.4663 11.7845 51.1899 11.859C50.7333 11.9823 50.0728 12.2223 49.6659 11.8676C49.6355 11.841 49.6092 11.8094 49.5844 11.7767C49.6894 11.3496 49.7451 10.9077 49.5805 10.6274C49.5266 10.5357 49.4021 10.5224 49.3261 10.5932C49.2891 9.91075 49.3467 9.22808 49.2416 8.54921C49.2123 8.3594 48.9744 8.35218 48.8566 8.44756C48.2141 8.96664 47.6306 9.46291 46.8542 9.71239C46.8446 8.71697 47.2255 7.78844 47.4911 6.83256C47.5316 6.68683 47.3803 6.60532 47.261 6.65567C46.3559 7.03814 45.5201 7.58097 44.6075 7.93969C43.3277 8.44319 43.3254 6.60817 43.1948 5.79649C43.1844 5.73113 43.0896 5.75241 43.0854 5.81131C43.0309 6.61387 42.995 8.21196 44.0854 8.35769C44.4878 8.41165 44.933 8.16921 45.2833 8.00524C45.8968 7.71853 46.4815 7.37824 47.0904 7.08298C46.7875 8.05388 46.3695 8.96322 46.4127 10.0101C46.4189 10.1676 46.5521 10.256 46.7005 10.2296C47.5534 10.0781 48.1951 9.58889 48.8367 9.05974C48.8867 9.96946 48.6837 10.9109 48.9754 11.7868C48.9687 11.8298 48.9621 11.8725 48.9537 11.9118C48.8152 12.5588 48.6292 13.1953 48.4147 13.8206C47.9819 15.0835 47.1778 16.8729 45.6605 17.0352C44.1944 17.1921 43.1316 15.5638 42.5589 14.4544C41.9473 13.2703 41.5816 11.9046 41.6063 10.5699C41.6093 10.4087 41.3541 10.369 41.322 10.5315C40.8654 12.8328 42.5838 17.3272 45.3031 17.5294C46.3462 17.6069 47.1282 17.0464 47.7201 16.2909C47.4622 17.0907 47.2325 17.8989 47.0699 18.7328C46.8172 20.0264 46.6861 21.6073 47.7731 22.5566C48.6684 23.3382 49.9769 23.4213 51.0926 23.6215C51.5391 23.7017 52.145 23.7921 52.3969 24.2176C52.7703 24.8478 51.9827 26.0037 51.6928 26.5103C51.6639 26.561 51.6519 26.6108 51.651 26.6581C47.6644 25.6407 43.6066 25.8894 39.776 27.484C39.7503 27.4947 39.7598 27.5359 39.788 27.527C43.8471 26.2135 48.0723 26.1447 52.1697 27.3358C52.2101 27.3476 52.2476 27.3499 52.2816 27.345C52.2784 27.3596 52.2772 27.3748 52.282 27.3919C53.265 30.9023 51.9932 34.5969 51.4764 38.1001C50.9765 41.4876 50.4255 45.0144 50.8803 48.4388C50.849 48.4764 50.833 48.5281 50.8503 48.5947C50.8834 48.7219 50.9227 48.8467 50.9586 48.9728C50.9894 49.1604 51.0211 49.3479 51.0586 49.5347C51.0717 49.6002 51.1146 49.6405 51.1667 49.6622C52.509 53.7854 55.2517 57.4199 57.8944 60.7827C60.9874 64.7189 64.1602 68.5349 66.5344 72.9676C71.9928 83.1584 74.5597 94.6772 75.6527 106.113C75.9932 109.675 76.0415 113.245 76.2379 116.81C74.0664 117.475 72.0021 118.568 70.053 119.908C69.1758 120.511 68.404 121.157 67.6313 121.885C67.1953 122.295 66.7311 122.662 66.1584 122.855C65.7628 122.988 65.3713 122.878 65.0114 122.705C64.3817 122.403 64.5098 121.992 64.5438 121.514C64.6504 120.011 62.3278 119.156 61.1643 118.998C59.4083 118.759 57.6189 119.329 56.0037 119.958C54.1229 120.692 52.3361 121.646 50.5098 122.501C48.8443 123.282 46.7079 124.282 44.819 123.941C43.6128 123.723 44.0702 121.575 43.9852 120.711C43.5074 115.838 37.0371 116.109 33.422 116.32C27.4769 116.667 21.6899 120.329 15.6707 119.045C16.3771 117.859 18.0489 117.509 19.2336 117.005C20.5772 116.433 21.7218 115.623 22.026 114.114C22.6336 111.1 18.0907 111.441 16.3271 111.515C13.7614 111.624 11.2634 112.24 8.7241 112.605C7.12259 112.835 5.50208 113.02 3.88195 112.985C2.79097 112.961 1.11688 112.865 0.529399 111.765C0.474109 111.661 0.33104 111.752 0.37569 111.854C1.23278 113.826 4.79756 113.414 6.45531 113.302C9.27738 113.111 12.0284 112.462 14.8273 112.106C16.0026 111.956 17.2602 111.974 18.4428 112.004C19.8362 112.04 21.8463 112.305 21.4666 114.164C20.8339 117.262 16.0191 116.346 14.8795 119.187C14.8142 119.35 14.9496 119.55 15.1083 119.59C19.9193 120.796 24.7496 118.783 29.3786 117.679C31.7333 117.117 34.0114 116.986 36.4189 117.031C38.3061 117.065 40.5692 117.16 42.1027 118.405C43.4354 119.487 43.207 121.264 43.261 122.783C43.3022 123.943 43.8739 124.624 45.038 124.757C46.8018 124.959 48.6845 124.16 50.259 123.462C52.1843 122.609 54.0319 121.591 55.979 120.785C57.9941 119.951 60.4778 119.143 62.5581 120.202C63.0341 120.444 63.802 120.91 63.8273 121.514C63.8484 122.017 63.7705 122.367 64.0631 122.809C64.677 123.737 65.9696 123.722 66.8597 123.323C68.0104 122.806 68.8781 121.606 69.8906 120.873C71.1993 119.927 72.5734 119.075 74.0258 118.367C74.7645 118.006 75.5157 117.714 76.2776 117.484C76.3027 117.894 76.328 118.304 76.3584 118.714C76.3806 119.015 76.8045 119.016 76.826 118.714C76.8592 118.249 76.8782 117.782 76.8911 117.314C78.9686 116.783 81.1209 116.704 83.3103 116.996C83.6833 117.045 83.7674 116.406 83.3992 116.339Z" fill="#9A7660"/>
<path id="path126" d="M28.9272 66.8054C29.0244 66.3154 29.1565 65.8374 29.3286 65.3768C29.2201 65.8587 29.085 66.3359 28.9272 66.8054ZM39.2206 100.431C40.7001 98.0753 40.7491 95.0056 40.3456 92.3464C39.9086 89.4683 38.6563 86.7121 37.4411 84.0922C36.1738 81.3604 34.7955 78.6669 33.8529 75.7993C32.7072 72.3137 32.1796 68.6135 30.6689 65.241C30.6575 65.2155 30.6404 65.1969 30.621 65.1819C30.621 65.1732 30.6212 65.1642 30.621 65.1553C30.6214 65.1061 30.6119 65.0631 30.5957 65.0259C30.7181 65.222 30.841 65.4137 30.9583 65.5997C31.488 66.4401 32.202 67.5573 33.1472 67.9764C34.0021 68.3553 34.2806 67.4537 34.3106 66.7826C34.3368 66.2007 35.454 65.749 35.8245 65.2701C36.253 64.7162 36.2883 63.9515 36.1515 63.2944C36.1126 63.1073 35.865 63.1753 35.8454 63.3359C35.7337 64.2454 35.6879 64.9041 34.904 65.4678C34.6243 65.6691 33.8854 65.9877 33.7872 66.3451C33.7205 66.5869 33.8941 67.3648 33.5717 67.4946C33.3405 67.5875 32.9164 67.1309 32.7809 67.004C32.0572 66.3268 31.4633 65.4713 30.8982 64.6626C30.507 64.1027 30.0377 63.5112 29.7573 62.8842C29.7265 62.8154 29.6288 62.8669 29.6421 62.9329C29.7841 63.6431 30.1625 64.3271 30.5564 64.963C30.3981 64.7704 30.0007 64.834 29.998 65.1553C29.9811 67.1704 29.8367 69.1711 29.7214 71.1714C29.5625 71.9252 29.3239 72.6557 28.9699 73.3464C28.7828 71.8146 28.6211 70.1474 28.7147 68.5312C29.3174 67.1117 29.7977 65.5742 29.9497 64.0358C29.9704 63.8268 29.674 63.7774 29.5768 63.9347C28.721 65.3183 28.3583 66.9035 28.2544 68.5362C27.7742 69.6421 27.1444 70.8705 26.1699 71.6149C25.3783 68.6749 27.7264 65.1564 29.4392 62.9792C29.5099 62.8894 29.4029 62.7788 29.3132 62.8531C27.9384 63.9912 27.0066 65.5777 26.2949 67.1942C25.6402 68.6813 25.1025 70.5538 25.7486 72.1344C25.8115 72.2885 25.9943 72.412 26.1579 72.3008C27.088 71.6677 27.7208 70.6592 28.2211 69.6296C28.2209 71.1534 28.3976 72.6888 28.5669 74.1132C28.5958 74.3562 28.8857 74.4579 29.0318 74.239C29.2597 73.8979 29.4544 73.5445 29.6218 73.1813C29.5538 74.9224 29.5471 76.6666 29.7067 78.4234C30.0141 81.8014 31.123 87.2101 35.5346 86.9679C36.2344 86.9295 36.2209 85.9517 35.5346 85.8917C31.6428 85.551 31.0823 80.1902 30.811 77.2131C30.5287 74.1149 30.5775 71.005 30.6079 67.8978C30.6123 67.725 30.6153 67.5525 30.6174 67.3804C31.1382 70.1295 31.9632 72.8562 32.5313 75.5785C33.0967 78.2883 34.4883 80.8985 35.6431 83.3909C36.8745 86.049 38.108 88.7223 38.8098 91.5778C39.1387 92.9154 39.3198 94.2669 39.3099 95.645C39.2985 97.2134 38.8906 98.6314 38.5288 100.139C38.4279 100.56 38.9907 100.797 39.2206 100.431Z" fill="#9A7660"/>
<path id="path128" d="M46.9218 11.3679C46.625 11.3679 46.625 11.8281 46.9218 11.8281C47.2186 11.8281 47.2186 11.3679 46.9218 11.3679Z" fill="#9A7660"/>
</g>
</g>
</svg>
