<svg width="18" height="19" viewBox="0 0 18 19" fill="none" xmlns="http://www.w3.org/2000/svg">
<g id="shop-bag 1" clip-path="url(#clip0_472_19915)">
<path id="Vector" d="M14.6291 17.1337H3.97569C3.91391 17.1337 3.85484 17.1068 3.81245 17.0592C3.77006 17.0115 3.74751 16.9475 3.75022 16.8816L4.25753 5.51036C4.26338 5.38185 4.36214 5.28125 4.48299 5.28125H14.1218C14.2422 5.28125 14.3414 5.38185 14.3473 5.51036L14.8546 16.8816C14.8573 16.9475 14.8352 17.0115 14.7923 17.0592C14.7495 17.1068 14.6904 17.1337 14.6291 17.1337ZM4.21198 16.6525H14.3924L13.9067 5.76257H4.69764L4.21198 16.6525Z" fill="white" stroke="white"/>
<path id="Vector_2" d="M11.7407 6.72502C11.6162 6.72502 11.5152 6.6172 11.5152 6.48436V4.0922C11.5152 2.79071 10.5232 1.73132 9.30339 1.73132C8.08359 1.73132 7.09156 2.79071 7.09156 4.0922V6.48436C7.09156 6.6172 6.99055 6.72502 6.86609 6.72502C6.74164 6.72502 6.64062 6.6172 6.64062 6.48436V4.0922C6.64062 2.52501 7.83512 1.25 9.30339 1.25C10.7716 1.25 11.9661 2.52501 11.9661 4.0922V6.48436C11.9661 6.6172 11.8656 6.72502 11.7407 6.72502Z" fill="white" stroke="white"/>
</g>
<defs>
<clipPath id="clip0_472_19915">
<rect width="18" height="18" fill="white" transform="translate(0 0.5)"/>
</clipPath>
</defs>
</svg>
