<svg width="24" height="25" viewBox="0 0 24 25" fill="none" xmlns="http://www.w3.org/2000/svg">
<g id="ruler-svgrepo-com 1" clip-path="url(#clip0_472_19965)">
<g id="Group">
<path id="Vector" d="M23.5638 7.24631L17.257 0.939563C16.6754 0.358688 15.7353 0.358688 15.1548 0.939563L0.439 15.6546C-0.141125 16.2362 -0.141125 17.1759 0.439 17.7572L6.74537 24.0636C7.32662 24.6444 8.2675 24.6444 8.84837 24.0636L23.5634 9.34856C24.1443 8.76769 24.1443 7.82719 23.5638 7.24631ZM23.038 8.82281L8.323 23.5382C8.03275 23.8284 7.56212 23.8284 7.2715 23.5382L0.96475 17.2314C0.6745 16.9416 0.6745 16.4702 0.964375 16.1799L1.75337 15.3921L2.8045 16.4428C2.94963 16.5887 3.18475 16.5887 3.33025 16.4428C3.47538 16.2981 3.47538 16.0629 3.32987 15.9182L2.27875 14.8663L3.32987 13.8152L5.43175 15.9178C5.57763 16.0629 5.81238 16.0629 5.95712 15.9178C6.10262 15.7719 6.10262 15.5368 5.95712 15.3921L3.85563 13.2902L4.90638 12.2387L5.9575 13.2902C6.103 13.4349 6.33812 13.4349 6.48325 13.2902C6.628 13.1443 6.628 12.9099 6.48325 12.7644L5.43175 11.7133L6.48325 10.6622L7.534 11.7133C7.67987 11.8588 7.91425 11.8588 8.06013 11.7133C8.20487 11.5682 8.20487 11.3331 8.06013 11.1876L7.00825 10.1364L8.06013 9.08569L10.162 11.1876C10.3071 11.3331 10.5422 11.3331 10.6874 11.1876C10.8325 11.0421 10.8329 10.8073 10.6874 10.6622L8.5855 8.56031L9.63587 7.50844L10.6877 8.55994C10.8333 8.70506 11.0684 8.70506 11.2127 8.56031C11.3586 8.41444 11.3586 8.17931 11.2127 8.03456L10.1616 6.98344L11.2127 5.93231L12.2643 6.98344C12.409 7.12856 12.6445 7.12856 12.7896 6.98344C12.9348 6.83831 12.9348 6.60281 12.7896 6.45806L11.7385 5.40656L12.7896 4.35619L14.8915 6.45769C15.037 6.60281 15.2721 6.60281 15.4169 6.45769C15.5624 6.31219 15.5624 6.07706 15.4169 5.93231L13.3146 3.83006L14.3661 2.77931L15.4173 3.83006C15.5628 3.97556 15.7979 3.97556 15.9426 3.83006C16.0881 3.68456 16.0881 3.44944 15.9426 3.30469L14.8915 2.25394L15.6798 1.46494C15.97 1.17544 16.441 1.17544 16.7313 1.46494L23.0376 7.77131C23.3283 8.06194 23.3283 8.53294 23.038 8.82281Z" fill="#9A7660"/>
<path id="Vector_2" d="M19.125 6.875C18.2966 6.875 17.625 7.54662 17.625 8.375C17.625 9.20338 18.2966 9.875 19.125 9.875C19.9534 9.875 20.625 9.20338 20.625 8.375C20.625 7.54662 19.9534 6.875 19.125 6.875ZM19.125 9.125C18.711 9.125 18.375 8.789 18.375 8.375C18.375 7.961 18.711 7.625 19.125 7.625C19.539 7.625 19.875 7.961 19.875 8.375C19.875 8.789 19.539 9.125 19.125 9.125Z" fill="#9A7660"/>
</g>
</g>
<defs>
<clipPath id="clip0_472_19965">
<rect width="24" height="24" fill="white" transform="translate(0 0.5)"/>
</clipPath>
</defs>
</svg>
